<?xml version="1.0" encoding="UTF-8" standalone="no"?>
<!-- Created with Inkscape (http://www.inkscape.org/) -->

<svg
   xmlns:dc="http://purl.org/dc/elements/1.1/"
   xmlns:cc="http://creativecommons.org/ns#"
   xmlns:rdf="http://www.w3.org/1999/02/22-rdf-syntax-ns#"
   xmlns:svg="http://www.w3.org/2000/svg"
   xmlns="http://www.w3.org/2000/svg"
   xmlns:sodipodi="http://sodipodi.sourceforge.net/DTD/sodipodi-0.dtd"
   xmlns:inkscape="http://www.inkscape.org/namespaces/inkscape"
   width="60"
   height="60"
   viewBox="0 0 15.875 15.875"
   version="1.1"
   id="svg851"
   sodipodi:docname="key.svg"
   inkscape:version="0.92.3 (d244b95, 2018-08-02)">
  <defs
     id="defs845" />
  <sodipodi:namedview
     id="base"
     pagecolor="#ffffff"
     bordercolor="#666666"
     borderopacity="1.0"
     inkscape:pageopacity="0.0"
     inkscape:pageshadow="2"
     inkscape:zoom="2.8284271"
     inkscape:cx="48.300011"
     inkscape:cy="37.928119"
     inkscape:document-units="mm"
     inkscape:current-layer="layer1"
     showgrid="false"
     units="px"
     inkscape:window-width="1299"
     inkscape:window-height="740"
     inkscape:window-x="67"
     inkscape:window-y="0"
     inkscape:window-maximized="1"
     showguides="true"
     inkscape:guide-bbox="true" />
  <metadata
     id="metadata848">
    <rdf:RDF>
      <cc:Work
         rdf:about="">
        <dc:format>image/svg+xml</dc:format>
        <dc:type
           rdf:resource="http://purl.org/dc/dcmitype/StillImage" />
        <dc:title />
      </cc:Work>
    </rdf:RDF>
  </metadata>
  <g
     inkscape:label="Layer 1"
     inkscape:groupmode="layer"
     id="layer1"
     transform="translate(0,-281.12496)">
    <g
       id="g5936"
       transform="matrix(2.4966737,0,0,2.4966737,-11.879851,-432.63218)"
       style="fill:#9f2e9f;fill-opacity:0.94117647">
      <path
         style="fill:#9f2e9f;fill-opacity:0.94117647;stroke-width:0.01241886"
         inkscape:connector-curvature="0"
         id="path8"
         d="m 8.4342544,289.01278 c 0.068552,0 0.1241886,-0.0556 0.1241886,-0.12419 0,-0.0686 -0.055637,-0.12418 -0.1241886,-0.12418 -0.068552,0 -0.1241886,0.0556 -0.1241886,0.12418 0,0.0686 0.055637,0.12419 0.1241886,0.12419 z" />
      <path
         style="fill:#9f2e9f;fill-opacity:0.94117647;stroke-width:0.01241886"
         inkscape:connector-curvature="0"
         id="path10"
         d="m 7.9375,288.26765 c 0.068552,0 0.1241886,-0.0556 0.1241886,-0.12419 0,-0.0686 -0.055637,-0.12419 -0.1241886,-0.12419 -0.068552,0 -0.1241886,0.0556 -0.1241886,0.12419 0,0.0686 0.055637,0.12419 0.1241886,0.12419 z" />
      <path
         style="fill:#9f2e9f;fill-opacity:0.94117647;stroke-width:0.01241886"
         inkscape:connector-curvature="0"
         id="path12"
         d="m 6.4472368,291.24818 c -0.068552,0 -0.1241886,0.0556 -0.1241886,0.12419 0,0.0686 0.055637,0.12418 0.1241886,0.12418 0.068552,0 0.1241886,-0.0556 0.1241886,-0.12418 0,-0.0686 -0.055636,-0.12419 -0.1241886,-0.12419 z" />
      <path
         style="fill:#9f2e9f;fill-opacity:0.94117647;stroke-width:0.01241886"
         inkscape:connector-curvature="0"
         id="path14"
         d="m 10.4016,290.94613 -1.5947798,-2.83519 v -1.50386 c 0.1445679,-0.0513 0.2483772,-0.18937 0.2483772,-0.35128 0,-0.20544 -0.1671331,-0.37257 -0.3725658,-0.37257 H 7.1923684 c -0.2054328,0 -0.3725658,0.16713 -0.3725658,0.37257 0,0.16191 0.1038092,0.30002 0.2483772,0.35128 v 1.50386 l -1.5947804,2.83519 c -0.1530997,0.27217 -0.1503799,0.59559 0.00725,0.86513 0.1576202,0.26952 0.4381374,0.43043 0.7503724,0.43043 h 3.4129511 c 0.312235,0 0.5927391,-0.16091 0.7503721,-0.43043 0.157632,-0.26954 0.160352,-0.59296 0.0073,-0.86513 z m -3.1009889,-2.74179 c 0.010457,-0.0186 0.015946,-0.0396 0.015946,-0.0609 v -1.5151 h 0.1241886 c 0.068577,0 0.1241886,-0.0556 0.1241886,-0.12419 0,-0.0686 -0.055612,-0.12419 -0.1241886,-0.12419 H 7.1923684 c -0.068478,0 -0.1241886,-0.0557 -0.1241886,-0.12418 0,-0.0685 0.055711,-0.12419 0.1241886,-0.12419 h 1.4902632 c 0.068478,0 0.1241886,0.0557 0.1241886,0.12419 0,0.0685 -0.055711,0.12418 -0.1241886,0.12418 H 8.4342544 c -0.068577,0 -0.1241886,0.0556 -0.1241886,0.12419 0,0.0686 0.055612,0.12419 0.1241886,0.12419 H 8.558443 v 1.5151 c 0,0.0213 0.00549,0.0423 0.015946,0.0609 l 0.73198,1.30133 c -0.4470169,-0.0362 -0.8924814,0.0542 -1.3017573,0.26614 -0.5261374,0.27227 -1.1118481,0.32021 -1.6641273,0.13943 z m 2.8793249,3.48153 c -0.112577,0.1925 -0.3129426,0.30744 -0.5359605,0.30744 H 6.2310244 c -0.2230179,0 -0.4233838,-0.11494 -0.5359607,-0.30744 -0.1126018,-0.19253 -0.1145516,-0.42356 -0.00518,-0.61799 l 0.526659,-0.93628 c 0.2555305,0.0892 0.5196051,0.13427 0.7878152,0.13427 0.039703,0 0.079506,-9.8e-4 0.1193825,-0.003 0.3465483,-0.0172 0.6813235,-0.10818 0.9950488,-0.27053 0.4196581,-0.21728 0.8812299,-0.29229 1.338542,-0.21833 l 0.7277948,1.29383 c 0.109361,0.19443 0.107423,0.42546 -0.0052,0.61799 z" />
      <path
         style="fill:#9f2e9f;fill-opacity:0.94117647;stroke-width:0.01241886"
         inkscape:connector-curvature="0"
         id="path16"
         d="m 7.4407456,289.50954 c 0.2054327,0 0.3725658,-0.16714 0.3725658,-0.37257 0,-0.20543 -0.1671331,-0.37256 -0.3725658,-0.37256 -0.2054328,0 -0.3725658,0.16713 -0.3725658,0.37256 0,0.20543 0.167133,0.37257 0.3725658,0.37257 z m 0,-0.49676 c 0.068478,0 0.1241886,0.0557 0.1241886,0.12419 0,0.0685 -0.055711,0.12419 -0.1241886,0.12419 -0.068478,0 -0.1241886,-0.0557 -0.1241886,-0.12419 0,-0.0685 0.055711,-0.12419 0.1241886,-0.12419 z" />
      <path
         style="fill:#9f2e9f;fill-opacity:0.94117647;stroke-width:0.01241886"
         inkscape:connector-curvature="0"
         id="path18"
         d="m 9.4277632,291.24818 h -2.483772 c -0.068577,0 -0.1241886,0.0556 -0.1241886,0.12419 0,0.0686 0.055612,0.12418 0.1241886,0.12418 h 2.483772 c 0.068577,0 0.1241886,-0.0556 0.1241886,-0.12418 0,-0.0686 -0.055612,-0.12419 -0.1241886,-0.12419 z" />
    </g>
  </g>
</svg>
