<?xml version="1.0" encoding="UTF-8" standalone="no"?>
<svg
   xmlns:dc="http://purl.org/dc/elements/1.1/"
   xmlns:cc="http://creativecommons.org/ns#"
   xmlns:rdf="http://www.w3.org/1999/02/22-rdf-syntax-ns#"
   xmlns:svg="http://www.w3.org/2000/svg"
   xmlns="http://www.w3.org/2000/svg"
   xmlns:sodipodi="http://sodipodi.sourceforge.net/DTD/sodipodi-0.dtd"
   xmlns:inkscape="http://www.inkscape.org/namespaces/inkscape"
   height="60"
   version="1.1"
   viewBox="-27 0 45 45"
   width="60"
   id="svg15"
   sodipodi:docname="cat.svg"
   inkscape:version="0.92.3 (d244b95, 2018-08-02)">
  <metadata
     id="metadata21">
    <rdf:RDF>
      <cc:Work
         rdf:about="">
        <dc:format>image/svg+xml</dc:format>
        <dc:type
           rdf:resource="http://purl.org/dc/dcmitype/StillImage" />
        <dc:title></dc:title>
      </cc:Work>
    </rdf:RDF>
  </metadata>
  <defs
     id="defs19" />
  <sodipodi:namedview
     pagecolor="#ffffff"
     bordercolor="#666666"
     borderopacity="1"
     objecttolerance="10"
     gridtolerance="10"
     guidetolerance="10"
     inkscape:pageopacity="0"
     inkscape:pageshadow="2"
     inkscape:window-width="1299"
     inkscape:window-height="740"
     id="namedview17"
     showgrid="false"
     units="px"
     inkscape:zoom="3.9111844"
     inkscape:cx="57.656404"
     inkscape:cy="13.433917"
     inkscape:window-x="67"
     inkscape:window-y="0"
     inkscape:window-maximized="1"
     inkscape:current-layer="svg15" />
  <g
     id="surface1"
     style="fill:#9f2e9f;fill-opacity:0.94117647"
     transform="matrix(0.09825553,0,0,0.08789062,-27.000039,1.28e-6)">
    <path
       d="m 265.81641,189.39844 c 4.14062,0 7.5,-3.35547 7.5,-7.5 v -14.64453 c 0,-4.14454 -3.35938,-7.5 -7.5,-7.5 -4.14063,0 -7.5,3.35546 -7.5,7.5 v 14.64453 c 0,4.14453 3.35937,7.5 7.5,7.5 z m 0,0"
       style="fill:#9f2e9f;fill-opacity:0.94117647;fill-rule:nonzero;stroke:none"
       id="path2"
       inkscape:connector-curvature="0" />
    <path
       d="m 255.83984,210.92969 h 19.95313 c 4.14062,0 7.5,-3.35547 7.5,-7.5 0,-4.14063 -3.35938,-7.5 -7.5,-7.5 h -19.95313 c -4.14062,0 -7.5,3.35937 -7.5,7.5 0,4.14453 3.35938,7.5 7.5,7.5 z m 0,0"
       style="fill:#9f2e9f;fill-opacity:0.94117647;fill-rule:nonzero;stroke:none"
       id="path4"
       inkscape:connector-curvature="0" />
    <path
       d="m 115.14453,189.39844 c 4.14063,0 7.5,-3.35547 7.5,-7.5 v -14.64453 c 0,-4.14454 -3.35937,-7.5 -7.5,-7.5 -4.14453,0 -7.5,3.35546 -7.5,7.5 v 14.64453 c 0,4.14453 3.35547,7.5 7.5,7.5 z m 0,0"
       style="fill:#9f2e9f;fill-opacity:0.94117647;fill-rule:nonzero;stroke:none"
       id="path6"
       inkscape:connector-curvature="0" />
    <path
       d="m 105.16797,210.92969 h 19.94922 c 4.14453,0 7.5,-3.35547 7.5,-7.5 0,-4.14063 -3.35547,-7.5 -7.5,-7.5 h -19.94922 c -4.14453,0 -7.500001,3.35937 -7.500001,7.5 0,4.14453 3.355471,7.5 7.500001,7.5 z m 0,0"
       style="fill:#9f2e9f;fill-opacity:0.94117647;fill-rule:nonzero;stroke:none"
       id="path8"
       inkscape:connector-curvature="0" />
    <path
       d="m 190.48047,210.10547 c 7.41406,0 14.38672,-3.10938 19.12109,-8.52735 2.72656,-3.11718 2.41016,-7.85546 -0.71094,-10.58203 -3.11718,-2.72656 -7.85546,-2.40625 -10.58203,0.71094 -1.88672,2.16016 -4.74218,3.39844 -7.82812,3.39844 -3.08594,0 -5.94141,-1.23828 -7.82813,-3.39844 -2.72656,-3.11719 -7.46484,-3.4375 -10.58203,-0.71094 -3.12109,2.72657 -3.4375,7.46485 -0.71094,10.58203 4.73438,5.41797 11.70313,8.52735 19.1211,8.52735 z m 0,0"
       style="fill:#9f2e9f;fill-opacity:0.94117647;fill-rule:nonzero;stroke:none"
       id="path10"
       inkscape:connector-curvature="0" />
    <path
       d="m 17.722656,197.85547 c 0,46.3164 18.332032,79.60937 54.488282,98.96094 9.574218,5.12109 20.324218,9.29687 32.476562,12.57031 -2.14453,12.94531 -8.582031,25.83594 -15.351562,39.375 -9.855469,19.71484 -21.027344,42.05859 -20.261719,68.64844 0.121093,4.14062 3.578125,7.40234 7.714843,7.27734 4.140626,-0.11719 7.398438,-3.57031 7.28125,-7.71094 -0.660156,-22.82031 9.171876,-42.48437 18.683598,-61.5039 7.16406,-14.32813 13.99218,-27.99219 16.59375,-42.71094 12.46875,2.42969 26.2539,4.07812 41.54687,4.97265 19.67969,1.14844 39.50391,1.1211 59.17969,0 15.29297,-0.89453 29.07422,-2.54296 41.53906,-4.97265 2.60156,14.71875 9.4375,28.38281 16.60156,42.71094 8.88672,17.76562 18.07422,36.13281 18.69141,57.04687 0.10937,3.77344 -0.0781,7.63672 -0.53906,11.41016 -2.47266,20.16797 -13.02344,41.10156 -32.01953,63.6289 -5.0625,6 -12.53907,9.44141 -20.52344,9.44141 h -5.28516 c 19.73828,-42.45703 14.02344,-94.59375 13.74219,-96.98828 -0.47656,-4.11328 -4.19922,-7.0625 -8.30859,-6.58594 -4.11719,0.47656 -7.06641,4.19531 -6.58985,8.3125 0.0664,0.57031 6.15235,55.89844 -15.65234,95.26172 h -23.75 v -96.125 c 0,-4.14063 -3.35938,-7.5 -7.5,-7.5 -4.14063,0 -7.5,3.35937 -7.5,7.5 V 497 h -23.75 c -21.71094,-39.21484 -15.73438,-94.51953 -15.65235,-95.26563 0.47657,-4.11328 -2.47265,-7.83203 -6.58984,-8.30859 -4.11328,-0.47656 -7.83594,2.47266 -8.30859,6.58594 -0.27735,2.39453 -5.9961,54.53125 13.74218,96.98828 h -5.28515 c -7.98047,0 -15.46094,-3.44141 -20.51953,-9.44141 -12.57422,-14.90625 -21.593752,-29.38672 -26.816409,-43.04297 -1.476562,-3.87109 -5.8125,-5.80859 -9.683593,-4.32812 C 76.25,441.66406 74.3125,446 75.789062,449.87109 c 5.90625,15.44532 15.511719,30.9375 29.359378,47.35938 C 113.06641,506.61719 124.72656,512 137.13672,512 h 106.6875 c 12.41406,0 24.07422,-5.38281 31.98828,-14.76953 8.73047,-10.35156 15.84766,-20.47266 21.39062,-30.42969 25.40625,-4.76562 44.75782,-15.38672 59.03125,-32.42187 17.1875,-20.51172 23.28125,-45.95704 29.17579,-70.56641 3.44531,-14.39453 6.70312,-27.99219 11.96875,-40.67578 1.58593,-3.82813 -0.22657,-8.21485 -4.05469,-9.80469 -3.82813,-1.58594 -8.21485,0.22656 -9.80078,4.05469 -5.71875,13.78515 -9.26953,28.60156 -12.70313,42.92969 -5.48828,22.92187 -11.16797,46.625 -26.08203,64.42578 -9.87891,11.79297 -22.85156,19.95703 -39.40625,24.7539 2.67188,-7.04297 4.5,-14.01562 5.54297,-20.98437 0.45703,-3.04688 0.78125,-6.11719 0.9375,-9.19922 21.48047,-12.37891 27.08984,-35.78906 34.07812,-64.96875 4.69141,-19.58984 10.01172,-41.79688 21.34766,-62.25781 12.87891,-23.23828 31.625,-40.70703 57.32031,-53.40235 6.26953,-3.09375 14.08203,-0.43359 17.16797,5.81641 3.09766,6.27344 0.44141,14.07812 -5.8164,17.17187 -15.1211,7.46875 -27.0586,16.77735 -36.5,28.46094 -2.60547,3.21875 -2.10547,7.94141 1.11718,10.54688 3.22266,2.60156 7.94532,2.10156 10.54688,-1.11719 8.05078,-9.96094 18.34765,-17.95313 31.48047,-24.44531 13.49609,-6.66797 19.28906,-23.47266 12.72656,-37.04297 -0.0352,-0.0703 -0.0703,-0.14453 -0.10547,-0.21875 -6.66406,-13.48828 -23.48437,-19.28125 -37.04297,-12.72656 -0.0742,0.0352 -0.14453,0.0703 -0.21875,0.10546 -28.52344,14.09375 -49.39062,33.58204 -63.79687,59.57813 -12.32813,22.25 -17.89844,45.51172 -22.81641,66.03906 -5.75781,24.03906 -9.70703,40.48828 -20.36719,50.54688 -2.86718,-19.71875 -11.51562,-37.06641 -19.30468,-52.63672 -6.77344,-13.53906 -13.21094,-26.42969 -15.35547,-39.375 12.15234,-3.27344 22.90234,-7.44922 32.47265,-12.57031 36.15625,-19.35157 54.49219,-52.64844 54.49219,-98.96485 0,-19.69531 -2.14844,-38.3164 -6.34766,-55.67578 C 386.90625,95.070312 382.46484,46.464844 377.02344,21.398438 374.59766,10.21875 365.25,1.902344 353.77344,0.699219 349.33203,0.234375 344.86719,0 340.50781,0 301.54297,0 276.49609,18.292969 267.07422,26.664062 243.52734,15.007812 217.16797,8.675781 190.48047,8.675781 c -26.69141,0 -53.05078,6.332031 -76.59375,17.988281 C 104.46094,18.292969 79.410156,0 40.449219,0 36.089844,0 31.628906,0.234375 27.1875,0.699219 15.707031,1.902344 6.363281,10.21875 3.9375,21.398438 -1.507812,46.464844 -5.945312,95.070312 24.070312,142.17578 c -4.199218,17.35938 -6.347656,35.98047 -6.347656,55.67969 z M 46.082031,45.71875 c 12.144531,0.960938 21.628907,4.765625 28.078125,8.335938 -1.132812,1.054687 -2.242187,2.132812 -3.34375,3.222656 -8.386718,8.304687 -15.882812,17.5 -22.332031,27.386718 -3.398437,-14.535156 -3.457031,-28.125 -2.402344,-38.945312 z M 332.47656,84.664062 c -4.13281,-6.339843 -8.67578,-12.363281 -13.60937,-18.0625 -3.66016,-4.226562 -7.53516,-8.269531 -11.60157,-12.105468 -0.15625,-0.144532 -0.30859,-0.296875 -0.46484,-0.441406 6.44922,-3.566407 15.93359,-7.375 28.07422,-8.332032 1.05469,10.8125 0.99609,24.410156 -2.39844,38.941406 z M 340.51172,15 c 3.83984,0 7.77344,0.207031 11.69922,0.617188 5.02343,0.527343 9.10547,4.128906 10.15234,8.964843 4.49609,20.6875 8.27344,58.980469 -11.36328,97.722659 -0.31641,-0.89063 -2.26563,-5.75391 -2.79297,-7.33985 -1.69531,-4.20312 -3.52734,-8.30859 -5.50391,-12.3164 9.40235,-25.437502 8.60938,-49.660159 6.1875,-65.769534 -0.54687,-3.644531 -3.66015,-6.347656 -7.34375,-6.382812 l -0.82812,-0.0039 c -21.28516,0 -36.77344,7.257812 -46,13.320312 -4.33203,-3.332031 -8.83594,-6.457031 -13.51172,-9.359375 C 291.17187,26.828125 311.33594,15 340.51172,15 Z m -50.03125,44.652344 c 40.27734,33.648437 57.75781,86.976566 57.75781,138.199216 0,40.92578 -15.23047,68.96875 -46.56641,85.73828 -28.55859,15.28125 -62.48046,18.67578 -94.35156,19.70703 -0.25781,0.008 -33.42187,0.008 -33.67969,0 -31.88281,-1.03906 -65.75781,-4.40625 -94.351558,-19.70703 -31.335937,-16.76953 -46.566406,-44.8125 -46.566406,-85.73828 0,-47.47265 14.242188,-95.44531 48.421875,-129.644529 28.597659,-28.613281 69.007809,-44.53125 109.335939,-44.53125 36.60547,0 72.51562,13.015625 100,35.976563 z M 18.59375,24.582031 C 19.644531,19.746094 23.726562,16.144531 28.75,15.617188 32.675781,15.207031 36.609375,15 40.449219,15 69.417969,15 89.679688,26.855469 99.710938,34.476562 95.050781,37.375 90.5625,40.492188 86.242188,43.8125 c -9.226563,-6.0625 -24.71875,-13.320312 -46,-13.320312 l -0.828126,0.0039 c -3.683593,0.03516 -6.796874,2.738281 -7.34375,6.382812 -2.421874,16.109375 -3.214843,40.332032 6.1875,65.76953 -1.984374,4.02344 -3.824218,8.14844 -5.523437,12.36719 -0.609375,1.50781 -2.445313,6.36718 -2.773437,7.29296 C 10.324219,83.5625 14.101562,45.269531 18.59375,24.582031 Z m 0,0"
       style="fill:#9f2e9f;fill-opacity:0.94117647;fill-rule:nonzero;stroke:none"
       id="path12"
       inkscape:connector-curvature="0" />
  </g>
</svg>
